<?xml version="1.0" standalone="no"?>
<!DOCTYPE svg PUBLIC "-//W3C//DTD SVG 20010904//EN"
 "http://www.w3.org/TR/2001/REC-SVG-20010904/DTD/svg10.dtd">
<svg version="1.0" xmlns="http://www.w3.org/2000/svg"
 width="452.000000pt" height="452.000000pt" viewBox="0 0 452.000000 452.000000"
 preserveAspectRatio="xMidYMid meet">

<g transform="translate(0.000000,452.000000) scale(0.100000,-0.100000)"
fill="#000000" stroke="none">
<path d="M1996 3935 c-699 -114 -1245 -635 -1398 -1338 -20 -89 -22 -131 -22
-337 0 -205 2 -248 22 -335 49 -228 154 -469 279 -645 87 -122 282 -316 403
-402 178 -127 417 -231 645 -280 87 -20 130 -22 335 -22 206 0 248 2 337 22
141 31 270 74 391 132 478 228 814 659 934 1195 20 88 22 129 22 335 0 205 -2
248 -22 335 -33 152 -77 277 -148 420 -231 466 -655 794 -1172 906 -128 28
-472 36 -606 14z m182 -207 c-3 -33 -3 -33 -71 -41 -72 -8 -207 -33 -214 -41
-3 -2 5 -38 16 -78 12 -41 21 -79 21 -84 0 -6 -26 -18 -57 -28 -144 -45 -328
-151 -446 -257 l-58 -52 -64 63 -63 62 -43 -47 c-44 -47 -124 -148 -138 -173
-6 -11 -13 -10 -39 5 l-30 19 54 74 c111 153 289 314 458 412 185 109 455 193
629 197 l48 1 -3 -32z m387 7 c349 -71 683 -285 901 -574 l63 -85 -30 -19
c-16 -11 -31 -18 -33 -16 -1 2 -28 38 -58 79 -31 41 -75 93 -97 115 l-41 39
-63 -62 -63 -62 -33 34 c-89 92 -306 221 -449 267 -40 12 -72 28 -72 34 0 6 9
44 20 84 12 40 19 75 17 77 -10 10 -149 35 -224 41 l-83 6 0 35 0 35 83 -6
c45 -3 118 -13 162 -22z m-110 -446 c33 -6 63 -14 67 -17 5 -6 -93 -396 -126
-499 -6 -18 -1 -23 31 -33 50 -16 115 -54 159 -92 l35 -31 190 194 190 193 42
-49 c59 -68 113 -149 152 -226 37 -72 79 -188 71 -196 -2 -3 -118 -35 -258
-72 l-253 -68 5 -34 c3 -19 5 -63 5 -99 0 -36 -2 -80 -5 -99 l-5 -34 254 -68
c140 -38 256 -70 258 -73 8 -7 -39 -132 -78 -207 -41 -78 -84 -140 -152 -219
l-38 -45 -191 192 -191 192 -41 -35 c-35 -30 -72 -50 -162 -90 -22 -9 -21 -11
46 -264 38 -140 67 -257 65 -261 -9 -14 -167 -34 -270 -33 -108 0 -250 19
-259 33 -3 4 26 122 63 262 67 251 68 254 47 263 -79 33 -127 60 -165 92 l-43
37 -191 -191 -192 -191 -40 46 c-57 65 -111 147 -150 224 -37 72 -79 188 -71
196 2 3 111 34 241 69 131 35 245 66 255 69 15 5 16 12 8 58 -8 43 -6 153 5
198 1 7 -106 40 -251 79 -139 37 -256 70 -258 73 -8 8 34 124 71 196 39 77 93
159 150 224 l40 46 192 -191 191 -191 43 37 c38 32 86 59 165 92 21 9 20 12
-47 263 -37 140 -66 258 -63 262 3 6 54 16 169 33 46 7 222 -2 290 -15z
m-1479 -382 c-24 -53 -79 -194 -90 -230 l-13 -45 83 -22 c46 -13 84 -28 84
-34 0 -6 -7 -47 -16 -91 -19 -94 -22 -331 -6 -420 6 -33 14 -76 18 -96 l6 -35
-85 -23 -85 -22 18 -57 c14 -47 34 -97 86 -219 3 -6 -8 -19 -26 -28 l-31 -16
-30 66 c-137 303 -171 655 -94 973 24 98 76 246 110 311 15 31 16 31 46 15 17
-8 28 -21 25 -27z m2683 -91 c109 -280 135 -573 75 -866 -19 -91 -63 -225
-103 -315 l-30 -66 -31 16 c-18 9 -29 22 -26 28 24 53 79 194 90 230 l13 45
-83 22 c-46 12 -84 27 -84 33 0 7 7 48 16 92 11 52 16 131 16 225 0 94 -5 173
-16 225 -9 44 -16 85 -16 91 0 6 38 21 84 34 l83 22 -13 45 c-11 36 -66 177
-90 230 -3 6 7 18 23 27 36 19 41 14 92 -118z m-2551 -1409 c29 -40 71 -92 93
-115 l42 -44 63 63 63 62 53 -48 c122 -110 267 -196 425 -251 46 -16 83 -34
83 -39 0 -6 -9 -42 -20 -80 -11 -38 -20 -73 -20 -76 0 -10 81 -28 190 -42 l95
-13 3 -33 3 -34 -75 6 c-325 28 -658 185 -900 424 -48 49 -117 126 -152 172
l-63 85 27 17 c15 10 29 18 32 18 3 0 29 -33 58 -72z m2394 55 l27 -18 -59
-79 c-158 -211 -377 -386 -611 -486 -156 -68 -368 -119 -491 -119 -48 0 -48 0
-48 34 l0 33 83 7 c76 6 215 30 224 40 2 2 -5 37 -17 77 -11 40 -20 78 -20 84
0 6 26 19 58 29 142 44 334 155 445 256 l54 49 59 -60 c32 -32 62 -59 66 -59
12 0 85 81 140 157 29 40 55 72 58 73 3 0 17 -8 32 -18z"/>
</g>
</svg>
